# Blender v2.79 (sub 0) OBJ File: ''
# www.blender.org
v 7.404520 12.809839 -1.662498
v 4.275000 15.939360 -1.662498
v 7.404520 12.809839 1.662502
v 4.275000 15.939360 1.662502
v 0.000000 17.084839 -1.662498
v 0.000000 17.084839 1.662502
v -4.275000 15.939360 -1.662498
v -4.275000 15.939360 1.662502
v -7.404520 12.809839 -1.662498
v -7.404520 12.809839 1.662502
v -8.550000 8.534840 -1.662500
v -8.550000 8.534840 1.662500
v -7.404520 4.259840 -1.662501
v -7.404520 4.259839 1.662499
v -4.275000 1.130320 -1.662501
v -4.275000 1.130319 1.662499
v 0.000000 -0.015160 -1.662501
v 0.000000 -0.015161 1.662498
v 4.275000 1.130320 -1.662501
v 4.275000 1.130319 1.662499
v 7.404520 4.259840 -1.662501
v 7.404520 4.259839 1.662499
v 8.550000 8.534840 -1.662500
v 8.550000 8.534840 1.662500
v 7.404520 12.809839 -1.662498
v 7.404520 12.809839 1.662502
v 4.275000 15.939360 -1.662498
v 7.404520 12.809839 -1.662498
v 0.000000 8.534840 -1.662500
v 0.000000 17.084839 -1.662498
v -4.275000 15.939360 -1.662498
v -7.404520 12.809839 -1.662498
v -8.550000 8.534840 -1.662500
v -7.404520 4.259840 -1.662501
v -4.275000 1.130320 -1.662501
v 0.000000 -0.015160 -1.662501
v 4.275000 1.130320 -1.662501
v 7.404520 4.259840 -1.662501
v 8.550000 8.534840 -1.662500
v 7.404520 12.809839 1.662502
v 4.275000 15.939360 1.662502
v 0.000000 8.534840 1.662500
v 8.550000 8.534840 1.662500
v 7.404520 4.259839 1.662499
v 4.275000 1.130319 1.662499
v 0.000000 -0.015161 1.662498
v -4.275000 1.130319 1.662499
v -7.404520 4.259839 1.662499
v -8.550000 8.534840 1.662500
v -7.404520 12.809839 1.662502
v -4.275000 15.939360 1.662502
v 0.000000 17.084839 1.662502
vt 0.835954 1.970990
vt 0.835954 1.852100
vt 0.979839 1.970990
vt 0.979839 1.852100
vt 0.835954 1.733210
vt 0.979840 1.733210
vt 0.835954 1.614320
vt 0.979840 1.614320
vt 0.835954 1.495420
vt 0.979840 1.495420
vt 0.835954 1.376530
vt 0.979840 1.376530
vt 0.835954 1.257640
vt 0.979840 1.257640
vt 0.835954 1.138750
vt 0.979840 1.138750
vt 0.835954 1.019860
vt 0.979840 1.019860
vt 0.835954 0.900970
vt 0.979840 0.900970
vt 0.835954 0.782079
vt 0.979840 0.782079
vt 0.835954 0.663188
vt 0.979840 0.663188
vt 0.835954 0.544297
vt 0.979840 0.544297
vt 0.217276 0.907064
vt 0.082082 0.735019
vt 0.401954 0.500000
vt 0.401954 0.970037
vt 0.586632 0.907064
vt 0.721826 0.735019
vt 0.771310 0.500000
vt 0.721826 0.264981
vt 0.586632 0.092936
vt 0.401954 0.029963
vt 0.217276 0.092936
vt 0.082082 0.264981
vt 0.032598 0.500000
vt 0.721826 0.735019
vt 0.586632 0.907064
vt 0.401954 0.500000
vt 0.771310 0.500000
vt 0.721826 0.264981
vt 0.586632 0.092936
vt 0.401954 0.029963
vt 0.217276 0.092936
vt 0.082082 0.264981
vt 0.032598 0.500000
vt 0.082082 0.735019
vt 0.217276 0.907064
vt 0.401954 0.970037
vn 0.7071 0.7071 0.0000
vn 0.2588 0.9659 0.0000
vn -0.2588 0.9659 0.0000
vn -0.7071 0.7071 0.0000
vn -0.9659 0.2588 0.0000
vn -0.9659 -0.2588 0.0000
vn -0.7071 -0.7071 -0.0000
vn -0.2588 -0.9659 -0.0000
vn 0.2588 -0.9659 -0.0000
vn 0.7071 -0.7071 -0.0000
vn 0.9659 -0.2588 -0.0000
vn 0.9659 0.2588 0.0000
vn 0.0000 0.0000 -1.0000
vn -0.0000 -0.0000 1.0000
usemtl None
s off
f 1/1/1 2/2/1 3/3/1
f 2/2/1 4/4/1 3/3/1
f 2/2/2 5/5/2 4/4/2
f 5/5/2 6/6/2 4/4/2
f 5/5/3 7/7/3 6/6/3
f 7/7/3 8/8/3 6/6/3
f 7/7/4 9/9/4 8/8/4
f 9/9/4 10/10/4 8/8/4
f 9/9/5 11/11/5 10/10/5
f 11/11/5 12/12/5 10/10/5
f 11/11/6 13/13/6 12/12/6
f 13/13/6 14/14/6 12/12/6
f 13/13/7 15/15/7 14/14/7
f 15/15/7 16/16/7 14/14/7
f 15/15/8 17/17/8 16/16/8
f 17/17/8 18/18/8 16/16/8
f 17/17/9 19/19/9 18/18/9
f 19/19/9 20/20/9 18/18/9
f 19/19/10 21/21/10 20/20/10
f 21/21/10 22/22/10 20/20/10
f 21/21/11 23/23/11 22/22/11
f 23/23/11 24/24/11 22/22/11
f 23/23/12 25/25/12 24/24/12
f 25/25/12 26/26/12 24/24/12
f 27/27/13 28/28/13 29/29/13
f 30/30/13 27/27/13 29/29/13
f 31/31/13 30/30/13 29/29/13
f 32/32/13 31/31/13 29/29/13
f 33/33/13 32/32/13 29/29/13
f 34/34/13 33/33/13 29/29/13
f 35/35/13 34/34/13 29/29/13
f 36/36/13 35/35/13 29/29/13
f 37/37/13 36/36/13 29/29/13
f 38/38/13 37/37/13 29/29/13
f 39/39/13 38/38/13 29/29/13
f 28/28/13 39/39/13 29/29/13
f 40/40/14 41/41/14 42/42/14
f 43/43/14 40/40/14 42/42/14
f 44/44/14 43/43/14 42/42/14
f 45/45/14 44/44/14 42/42/14
f 46/46/14 45/45/14 42/42/14
f 47/47/14 46/46/14 42/42/14
f 48/48/14 47/47/14 42/42/14
f 49/49/14 48/48/14 42/42/14
f 50/50/14 49/49/14 42/42/14
f 51/51/14 50/50/14 42/42/14
f 52/52/14 51/51/14 42/42/14
f 41/41/14 52/52/14 42/42/14
